<svg width="44" height="44" viewBox="0 0 44 44" fill="none" xmlns="http://www.w3.org/2000/svg">
<path fill-rule="evenodd" clip-rule="evenodd" d="M23.9507 34.1L20.2657 22.8525C20.1 22.1281 20.3184 21.3693 20.8438 20.8439C21.3693 20.3184 22.1281 20.1 22.8525 20.2657L34.1 23.9507C34.5034 24.0114 34.8149 24.3368 34.858 24.7425C34.9011 25.1481 34.6649 25.5317 34.2833 25.6758L28.996 28.0812C28.5814 28.2632 28.2503 28.5943 28.0683 29.0088L25.6667 34.2962C25.5225 34.6778 25.1389 34.914 24.7333 34.8709C24.3276 34.8278 24.0022 34.5162 23.9415 34.1128L23.9507 34.1Z" stroke="black" stroke-width="3" stroke-linecap="round" stroke-linejoin="round"/>
<path d="M12.012 22.0462C12.8404 22.0462 13.512 21.3746 13.512 20.5462C13.512 19.7177 12.8404 19.0462 12.012 19.0462V22.0462ZM9.16669 19.0462C8.33826 19.0462 7.66669 19.7177 7.66669 20.5462C7.66669 21.3746 8.33826 22.0462 9.16669 22.0462V19.0462ZM22.048 9.16667C22.048 8.33824 21.3764 7.66667 20.548 7.66667C19.7196 7.66667 19.048 8.33824 19.048 9.16667H22.048ZM19.048 12.012C19.048 12.8404 19.7196 13.512 20.548 13.512C21.3764 13.512 22.048 12.8404 22.048 12.012H19.048ZM29.6552 13.5603C30.241 12.9745 30.241 12.0248 29.6552 11.439C29.0694 10.8532 28.1196 10.8532 27.5339 11.439L29.6552 13.5603ZM25.5172 13.4557C24.9314 14.0415 24.9314 14.9912 25.5172 15.577C26.103 16.1628 27.0527 16.1628 27.6385 15.577L25.5172 13.4557ZM15.5715 27.644C16.1573 27.0582 16.1573 26.1085 15.5715 25.5227C14.9857 24.9369 14.036 24.9369 13.4502 25.5227L15.5715 27.644ZM11.4335 27.5393C10.8477 28.1251 10.8477 29.0749 11.4335 29.6607C12.0193 30.2465 12.9691 30.2465 13.5548 29.6607L11.4335 27.5393ZM13.5548 11.4445C12.9691 10.8587 12.0193 10.8587 11.4335 11.4445C10.8477 12.0303 10.8477 12.98 11.4335 13.5658L13.5548 11.4445ZM13.4502 15.5825C14.036 16.1683 14.9857 16.1683 15.5715 15.5825C16.1573 14.9967 16.1573 14.047 15.5715 13.4612L13.4502 15.5825ZM12.012 19.0462H9.16669V22.0462H12.012V19.0462ZM19.048 9.16667V12.012H22.048V9.16667H19.048ZM27.5339 11.439L25.5172 13.4557L27.6385 15.577L29.6552 13.5603L27.5339 11.439ZM13.4502 25.5227L11.4335 27.5393L13.5548 29.6607L15.5715 27.644L13.4502 25.5227ZM11.4335 13.5658L13.4502 15.5825L15.5715 13.4612L13.5548 11.4445L11.4335 13.5658Z" fill="black"/>
</svg>
