<svg width="27" height="21" viewBox="0 0 27 21" fill="none" xmlns="http://www.w3.org/2000/svg">
<path d="M19.4543 3.00222C18.8778 2.40731 18.8927 1.45768 19.4876 0.881164C20.0825 0.304645 21.0322 0.319554 21.6087 0.914464L19.4543 3.00222ZM26.5355 5.99846C27.112 6.59337 27.0971 7.543 26.5022 8.11952C25.9073 8.69604 24.9577 8.68113 24.3812 8.08622L26.5355 5.99846ZM24.4135 5.96613C25.0079 5.38906 25.9575 5.40309 26.5346 5.99747C27.1116 6.59185 27.0976 7.54149 26.5032 8.11856L24.4135 5.96613ZM21.5764 12.9019C20.982 13.479 20.0324 13.4649 19.4553 12.8705C18.8782 12.2762 18.8923 11.3265 19.4866 10.7495L21.5764 12.9019ZM25.4583 5.54234C26.2868 5.54234 26.9583 6.21392 26.9583 7.04234C26.9583 7.87077 26.2868 8.54234 25.4583 8.54234V5.54234ZM7.31584 7.04234L7.28652 5.54263C7.2963 5.54244 7.30607 5.54234 7.31584 5.54234V7.04234ZM1.54168 13.042L3.04141 13.0139C3.04176 13.0326 3.04176 13.0514 3.04141 13.0701L1.54168 13.042ZM7.31584 19.0417V20.5417C7.30607 20.5417 7.2963 20.5416 7.28653 20.5414L7.31584 19.0417ZM25.4583 17.5417C26.2868 17.5417 26.9583 18.2132 26.9583 19.0417C26.9583 19.8701 26.2868 20.5417 25.4583 20.5417V17.5417ZM21.6087 0.914464L26.5355 5.99846L24.3812 8.08622L19.4543 3.00222L21.6087 0.914464ZM26.5032 8.11856L21.5764 12.9019L19.4866 10.7495L24.4135 5.96613L26.5032 8.11856ZM25.4583 8.54234H7.31584V5.54234H25.4583V8.54234ZM7.34516 8.54206C4.92227 8.58942 2.99597 10.591 3.04141 13.0139L0.0419387 13.0701C-0.0345593 8.99158 3.20802 5.62236 7.28652 5.54263L7.34516 8.54206ZM3.04141 13.0701C2.99597 15.4931 4.92227 17.4946 7.34516 17.542L7.28653 20.5414C3.20802 20.4617 -0.0345593 17.0924 0.0419387 13.0139L3.04141 13.0701ZM7.31584 17.5417H25.4583V20.5417H7.31584V17.5417Z" fill="black"/>
</svg>
