<svg width="32" height="32" viewBox="0 0 32 32" fill="none" xmlns="http://www.w3.org/2000/svg">
<path fill-rule="evenodd" clip-rule="evenodd" d="M6.66666 15.324C6.6715 11.1897 9.59597 7.63438 13.6518 6.83221C17.7076 6.03003 21.7653 8.20435 23.3436 12.0256C24.9219 15.8468 23.5814 20.2509 20.1417 22.5446C16.702 24.8384 12.121 24.3832 9.2 21.4574C7.5753 19.83 6.66397 17.6236 6.66666 15.324Z" stroke="black" stroke-width="3" stroke-linecap="round" stroke-linejoin="round"/>
<path d="M20.7493 22.0907L25.3333 26.6574" stroke="black" stroke-width="3" stroke-linecap="round" stroke-linejoin="round"/>
<path d="M11.5621 13.824C10.7336 13.824 10.0621 14.4956 10.0621 15.324C10.0621 16.1525 10.7336 16.824 11.5621 16.824L11.5621 13.824ZM15.3333 16.824C16.1617 16.824 16.8333 16.1525 16.8333 15.324C16.8333 14.4956 16.1617 13.824 15.3333 13.824L15.3333 16.824ZM15.3333 13.824C14.5049 13.824 13.8333 14.4956 13.8333 15.324C13.8333 16.1525 14.5049 16.824 15.3333 16.824L15.3333 13.824ZM19.1045 16.824C19.933 16.824 20.6045 16.1525 20.6045 15.324C20.6045 14.4956 19.933 13.824 19.1045 13.824L19.1045 16.824ZM16.8333 15.324C16.8333 14.4956 16.1617 13.824 15.3333 13.824C14.5049 13.824 13.8333 14.4956 13.8333 15.324L16.8333 15.324ZM13.8333 19.0953C13.8333 19.9237 14.5049 20.5953 15.3333 20.5953C16.1617 20.5953 16.8333 19.9237 16.8333 19.0953L13.8333 19.0953ZM13.8333 15.324C13.8333 16.1525 14.5049 16.824 15.3333 16.824C16.1617 16.824 16.8333 16.1525 16.8333 15.324L13.8333 15.324ZM16.8333 11.5528C16.8333 10.7244 16.1617 10.0528 15.3333 10.0528C14.5049 10.0528 13.8333 10.7244 13.8333 11.5528L16.8333 11.5528ZM11.5621 16.824L15.3333 16.824L15.3333 13.824L11.5621 13.824L11.5621 16.824ZM15.3333 16.824L19.1045 16.824L19.1045 13.824L15.3333 13.824L15.3333 16.824ZM13.8333 15.324L13.8333 19.0953L16.8333 19.0953L16.8333 15.324L13.8333 15.324ZM16.8333 15.324L16.8333 11.5528L13.8333 11.5528L13.8333 15.324L16.8333 15.324Z" fill="black"/>
</svg>
