<svg width="27" height="21" viewBox="0 0 27 21" fill="none" xmlns="http://www.w3.org/2000/svg">
<path d="M7.54567 3.00222C8.12219 2.40731 8.10728 1.45768 7.51237 0.881164C6.91746 0.304645 5.96783 0.319554 5.39131 0.914464L7.54567 3.00222ZM0.464477 5.99846C-0.112042 6.59337 -0.0971328 7.543 0.497777 8.11952C1.09269 8.69604 2.04232 8.68113 2.61884 8.08622L0.464477 5.99846ZM2.58653 5.96613C1.99215 5.38906 1.04251 5.40309 0.465439 5.99747C-0.111627 6.59185 -0.0975933 7.54149 0.496785 8.11856L2.58653 5.96613ZM5.42362 12.9019C6.018 13.479 6.96764 13.4649 7.54471 12.8705C8.12177 12.2762 8.10774 11.3265 7.51336 10.7495L5.42362 12.9019ZM1.54166 5.54234C0.713229 5.54234 0.0416564 6.21392 0.0416564 7.04234C0.0416564 7.87077 0.713229 8.54234 1.54166 8.54234V5.54234ZM19.6842 7.04234L19.7135 5.54263C19.7037 5.54244 19.6939 5.54234 19.6842 5.54234V7.04234ZM25.4583 13.042L23.9586 13.0139C23.9582 13.0326 23.9582 13.0514 23.9586 13.0701L25.4583 13.042ZM19.6842 19.0417V20.5417C19.6939 20.5417 19.7037 20.5416 19.7135 20.5414L19.6842 19.0417ZM1.54166 17.5417C0.713229 17.5417 0.0416564 18.2132 0.0416564 19.0417C0.0416564 19.8701 0.713229 20.5417 1.54166 20.5417V17.5417ZM5.39131 0.914464L0.464477 5.99846L2.61884 8.08622L7.54567 3.00222L5.39131 0.914464ZM0.496785 8.11856L5.42362 12.9019L7.51336 10.7495L2.58653 5.96613L0.496785 8.11856ZM1.54166 8.54234H19.6842V5.54234H1.54166V8.54234ZM19.6548 8.54206C22.0777 8.58942 24.004 10.591 23.9586 13.0139L26.9581 13.0701C27.0346 8.99158 23.792 5.62236 19.7135 5.54263L19.6548 8.54206ZM23.9586 13.0701C24.004 15.4931 22.0777 17.4946 19.6548 17.542L19.7135 20.5414C23.792 20.4617 27.0346 17.0924 26.9581 13.0139L23.9586 13.0701ZM19.6842 17.5417H1.54166V20.5417H19.6842V17.5417Z" fill="black"/>
</svg>
