<?xml version="1.0" encoding="utf-8"?>
<svg viewBox="0 0 500 500" xmlns="http://www.w3.org/2000/svg">
  <g transform="matrix(0.9999999999999999, 0, 0, 0.9999999999999999, 423.61865234374994, 261.9176635742187)" id="ca5e7d8a-2c43-4101-bc29-ecca5150101d"/>
  <g transform="matrix(0.9999999999999999, 0, 0, 0.9999999999999999, 423.61865234374994, 261.9176635742187)" id="dbb274a3-6dfa-4249-82df-89ee1264d187"/>
  <g transform="matrix(0.9999999999999999, 0, 0, 0.9999999999999999, 5.3566460609436035, 112.4895629882812)">
    <g transform="matrix(3.52, 0, 0, 3.52, 218.924088, 88.679382)">
      <path style="stroke: none; stroke-width: 1; stroke-dasharray: none; stroke-linecap: butt; stroke-dashoffset: 0; stroke-linejoin: miter; stroke-miterlimit: 4; fill: rgb(255,255,255); fill-rule: nonzero; opacity: 1;" vector-effect="non-scaling-stroke" transform=" translate(-17.2, -16)" d="M 31.9 18 L 2.5 18 C 1.4 18 0.5 17.1 0.5 16 C 0.5 14.899999999999999 1.4 14 2.5 14 L 31.9 14 C 33 14 33.9 14.9 33.9 16 C 33.9 17.1 33 18 31.9 18 z" stroke-linecap="round"/>
    </g>
    <g transform="matrix(3.52, 0, 0, 3.52, 270.354065, 64.899384)">
      <path style="stroke: none; stroke-width: 1; stroke-dasharray: none; stroke-linecap: butt; stroke-dashoffset: 0; stroke-linejoin: miter; stroke-miterlimit: 4; fill: rgb(255,255,255); fill-rule: nonzero; opacity: 1;" vector-effect="non-scaling-stroke" transform=" translate(-31.8, -9.25)" d="M 31.9 18 C 30.799999999999997 18 29.9 17.1 29.9 16 C 29.9 14.899999999999999 30.799999999999997 14 31.9 14 C 34.9 14 37.3 11.8 37.3 9.2 C 37.3 6.499999999999999 34.9 4.3999999999999995 31.9 4.3999999999999995 C 28.9 4.3999999999999995 26.5 6.6 26.5 9.2 C 26.5 10.299999999999999 25.6 11.2 24.5 11.2 C 23.4 11.2 22.5 10.299999999999999 22.5 9.2 C 22.5 4.3999999999999995 26.7 0.5 31.8 0.5 C 36.900000000000006 0.5 41.1 4.4 41.1 9.2 C 41.1 13.999999999999998 37 18 31.9 18 z" stroke-linecap="round"/>
    </g>
    <g transform="matrix(3.52, 0, 0, 3.52, 218.924088, 144.689392)">
      <path style="stroke: none; stroke-width: 1; stroke-dasharray: none; stroke-linecap: butt; stroke-dashoffset: 0; stroke-linejoin: miter; stroke-miterlimit: 4; fill: rgb(255,255,255); fill-rule: nonzero; opacity: 1;" vector-effect="non-scaling-stroke" transform=" translate(-17.2, -31.9)" d="M 31.9 33.9 L 2.5 33.9 C 1.4 33.9 0.5 33 0.5 31.9 C 0.5 30.799999999999997 1.4 29.9 2.5 29.9 L 31.9 29.9 C 33 29.9 33.9 30.799999999999997 33.9 31.9 C 33.9 33 33 33.9 31.9 33.9 z" stroke-linecap="round"/>
    </g>
    <g transform="matrix(3.52, 0, 0, 3.52, 283.564087, 168.639374)">
      <path style="stroke: none; stroke-width: 1; stroke-dasharray: none; stroke-linecap: butt; stroke-dashoffset: 0; stroke-linejoin: miter; stroke-miterlimit: 4; fill: rgb(255,255,255); fill-rule: nonzero; opacity: 1;" vector-effect="non-scaling-stroke" transform=" translate(-35.55, -38.7)" d="M 31.9 47.5 C 30.799999999999997 47.5 29.9 46.6 29.9 45.5 C 29.9 44.4 30.799999999999997 43.5 31.9 43.5 C 34.9 43.5 37.3 41.3 37.3 38.7 C 37.3 36 34.9 33.900000000000006 31.9 33.900000000000006 C 30.799999999999997 33.900000000000006 29.9 33.00000000000001 29.9 31.900000000000006 C 29.9 30.800000000000004 30.799999999999997 29.900000000000006 31.9 29.900000000000006 C 37 29.900000000000006 41.2 33.800000000000004 41.2 38.60000000000001 C 41.2 43.40000000000001 37 47.5 31.9 47.5 z" stroke-linecap="round"/>
    </g>
    <g transform="matrix(3.52, 0, 0, 3.52, 230.724075, 117.919373)">
      <path style="stroke: none; stroke-width: 1; stroke-dasharray: none; stroke-linecap: butt; stroke-dashoffset: 0; stroke-linejoin: miter; stroke-miterlimit: 4; fill: rgb(255,255,255); fill-rule: nonzero; opacity: 1;" vector-effect="non-scaling-stroke" transform=" translate(-20.55, -24.3)" d="M 38.5 26.3 L 2.5 26.3 C 1.4 26.3 0.5 25.400000000000002 0.5 24.3 C 0.5 23.2 1.4 22.3 2.5 22.3 L 38.6 22.3 C 39.7 22.3 40.6 23.2 40.6 24.3 C 40.5 25.4 39.6 26.3 38.5 26.3 z" stroke-linecap="round"/>
    </g>
    <g transform="matrix(3.52, 0, 0, 3.52, 306.284058, 107.349396)">
      <path style="stroke: none; stroke-width: 1; stroke-dasharray: none; stroke-linecap: butt; stroke-dashoffset: 0; stroke-linejoin: miter; stroke-miterlimit: 4; fill: rgb(255,255,255); fill-rule: nonzero; opacity: 1;" vector-effect="non-scaling-stroke" transform=" translate(-42, -21.3)" d="M 38.5 26.3 C 37.4 26.3 36.5 25.400000000000002 36.5 24.3 C 36.5 23.2 37.4 22.3 38.5 22.3 C 41.3 22.3 43.5 20.5 43.5 18.3 C 43.5 17.2 44.4 16.3 45.5 16.3 C 46.6 16.3 47.5 17.2 47.5 18.3 C 47.5 22.8 43.5 26.3 38.5 26.3 z" stroke-linecap="round"/>
    </g>
  </g>
</svg>