<svg width="48" height="48" viewBox="0 0 48 48" fill="none" xmlns="http://www.w3.org/2000/svg">
<path d="M21.5499 24.7821C21.0617 24.294 20.2703 24.294 19.7821 24.7821C19.294 25.2703 19.294 26.0617 19.7821 26.5499L21.5499 24.7821ZM23.1161 29.8839C23.6043 30.372 24.3957 30.372 24.8839 29.8839C25.372 29.3957 25.372 28.6043 24.8839 28.1161L23.1161 29.8839ZM19.7821 31.4501C19.294 31.9383 19.294 32.7297 19.7821 33.2179C20.2703 33.706 21.0617 33.706 21.5499 33.2179L19.7821 31.4501ZM24.8839 29.8839C25.372 29.3957 25.372 28.6043 24.8839 28.1161C24.3957 27.628 23.6043 27.628 23.1161 28.1161L24.8839 29.8839ZM28.2179 26.5499C28.706 26.0617 28.706 25.2703 28.2179 24.7821C27.7297 24.294 26.9383 24.294 26.4501 24.7821L28.2179 26.5499ZM23.1161 28.1161C22.628 28.6043 22.628 29.3957 23.1161 29.8839C23.6043 30.372 24.3957 30.372 24.8839 29.8839L23.1161 28.1161ZM26.4501 33.2179C26.9383 33.706 27.7297 33.706 28.2179 33.2179C28.706 32.7297 28.706 31.9383 28.2179 31.4501L26.4501 33.2179ZM24.8839 28.1161C24.3957 27.628 23.6043 27.628 23.1161 28.1161C22.628 28.6043 22.628 29.3957 23.1161 29.8839L24.8839 28.1161ZM27.524 12.25C28.2144 12.25 28.774 11.6904 28.774 11C28.774 10.3096 28.2144 9.75 27.524 9.75V12.25ZM20.858 9.75C20.1676 9.75 19.608 10.3096 19.608 11C19.608 11.6904 20.1676 12.25 20.858 12.25V9.75ZM34 16.25C34.6904 16.25 35.25 15.6904 35.25 15C35.25 14.3096 34.6904 13.75 34 13.75V16.25ZM14 13.75C13.3096 13.75 12.75 14.3096 12.75 15C12.75 15.6904 13.3096 16.25 14 16.25V13.75ZM15.4645 37.5355L14.5806 38.4194H14.5806L15.4645 37.5355ZM14 34H15.25H14ZM19.7821 26.5499L23.1161 29.8839L24.8839 28.1161L21.5499 24.7821L19.7821 26.5499ZM21.5499 33.2179L24.8839 29.8839L23.1161 28.1161L19.7821 31.4501L21.5499 33.2179ZM26.4501 24.7821L23.1161 28.1161L24.8839 29.8839L28.2179 26.5499L26.4501 24.7821ZM28.2179 31.4501L24.8839 28.1161L23.1161 29.8839L26.4501 33.2179L28.2179 31.4501ZM27.524 9.75H20.858V12.25H27.524V9.75ZM34 13.75H14V16.25H34V13.75ZM15.666 20.25H32.334V17.75H15.666V20.25ZM32.334 20.25C32.5637 20.25 32.75 20.4362 32.75 20.666H35.25C35.25 19.0555 33.9445 17.75 32.334 17.75V20.25ZM32.75 20.666V34H35.25V20.666H32.75ZM32.75 34C32.75 36.0711 31.0711 37.75 29 37.75V40.25C32.4518 40.25 35.25 37.4518 35.25 34H32.75ZM29 37.75H19V40.25H29V37.75ZM19 37.75C18.0054 37.75 17.0516 37.3549 16.3483 36.6516L14.5806 38.4194C15.7527 39.5915 17.3424 40.25 19 40.25V37.75ZM16.3483 36.6516C15.6451 35.9484 15.25 34.9946 15.25 34H12.75C12.75 35.6576 13.4085 37.2473 14.5806 38.4194L16.3483 36.6516ZM15.25 34V20.666H12.75V34H15.25ZM15.25 20.666C15.25 20.4362 15.4362 20.25 15.666 20.25V17.75C14.0555 17.75 12.75 19.0555 12.75 20.666H15.25Z" fill="#DC3545"/>
</svg>
